<svg width="30" height="30" viewBox="0 0 30 30" fill="none" xmlns="http://www.w3.org/2000/svg">
<g id="delete_forever_24px">
<path id="icon/action/delete_forever_24px" fill-rule="evenodd" clip-rule="evenodd" d="M18.1532 3.75L19.3887 5H23.7131V7.5H6.41553V5H10.7399L11.9755 3.75H18.1532ZM15.0643 15.7375L17.6836 13.0875L19.4258 14.85L16.8064 17.5L19.4258 20.15L17.6836 21.9125L15.0643 19.2625L12.445 21.9125L10.7028 20.15L13.3222 17.5L10.6905 14.85L12.4326 13.0875L15.0643 15.7375ZM7.65107 23.75C7.65107 25.125 8.76305 26.25 10.1221 26.25H20.0065C21.3656 26.25 22.4775 25.125 22.4775 23.75V8.75H7.65107V23.75ZM20.0065 11.25H10.1221V23.75H20.0065V11.25Z" fill="#FF0000"/>
</g>
</svg>
