<svg width="30" height="30" viewBox="0 0 30 30" fill="none" xmlns="http://www.w3.org/2000/svg">
<g id="print_24px">
<path id="icon/action/print_24px" fill-rule="evenodd" clip-rule="evenodd" d="M23.75 10H22.5V3.75H7.5V10H6.25C4.175 10 2.5 11.675 2.5 13.75V21.25H7.5V26.25H22.5V21.25H27.5V13.75C27.5 11.675 25.825 10 23.75 10ZM10 6.25H20V10H10V6.25ZM20 23.75V21.25V18.75H10V23.75H20ZM22.5 18.75V16.25H7.5V18.75H5V13.75C5 13.0625 5.5625 12.5 6.25 12.5H23.75C24.4375 12.5 25 13.0625 25 13.75V18.75H22.5ZM21.25 14.375C21.25 13.6846 21.8096 13.125 22.5 13.125C23.1904 13.125 23.75 13.6846 23.75 14.375C23.75 15.0654 23.1904 15.625 22.5 15.625C21.8096 15.625 21.25 15.0654 21.25 14.375Z" fill="white"/>
</g>
</svg>
