<svg width="25" height="25" viewBox="0 0 25 25" fill="none" xmlns="http://www.w3.org/2000/svg">
<g id="search_24px">
<rect width="25" height="25" fill="#005691"/>
<path id="icon/action/search_24px" fill-rule="evenodd" clip-rule="evenodd" d="M15.5885 14.849H16.4115L21.6094 20.0573L20.0573 21.6094L14.849 16.4115V15.5885L14.5677 15.2969C13.3802 16.3177 11.8385 16.9323 10.1615 16.9323C6.42188 16.9323 3.39062 13.901 3.39062 10.1615C3.39062 6.42187 6.42188 3.39062 10.1615 3.39062C13.901 3.39062 16.9323 6.42187 16.9323 10.1615C16.9323 11.8385 16.3177 13.3802 15.2969 14.5677L15.5885 14.849ZM5.47393 10.1615C5.47393 12.7552 7.56768 14.849 10.1614 14.849C12.7552 14.849 14.8489 12.7552 14.8489 10.1615C14.8489 7.56771 12.7552 5.47396 10.1614 5.47396C7.56768 5.47396 5.47393 7.56771 5.47393 10.1615Z" fill="white" fill-opacity="0.54"/>
</g>
</svg>
